<svg width="25" height="25" viewBox="0 0 25 25" fill="none" xmlns="http://www.w3.org/2000/svg">
<path d="M6.0061 23.6455C5.5961 23.6455 5.2561 23.3055 5.2561 22.8955V2.89551C5.2561 2.48551 5.5961 2.14551 6.0061 2.14551C6.4161 2.14551 6.7561 2.48551 6.7561 2.89551V22.8955C6.7561 23.3055 6.4161 23.6455 6.0061 23.6455Z" fill="#5F33E1" fill-opacity="0.87"/>
<path d="M17.2061 17.6455H6.0061C5.5961 17.6455 5.2561 17.3055 5.2561 16.8955C5.2561 16.4855 5.5961 16.1455 6.0061 16.1455H17.2061C18.2961 16.1455 18.8061 15.8555 18.9061 15.6055C19.0061 15.3555 18.8561 14.7955 18.0761 14.0255L16.8761 12.8255C16.3861 12.3955 16.0861 11.7455 16.0561 11.0255C16.0261 10.2655 16.3261 9.51551 16.8761 8.96551L18.0761 7.76551C18.8161 7.02551 19.0461 6.42551 18.9361 6.16551C18.8261 5.90551 18.2561 5.64551 17.2061 5.64551H6.0061C5.5861 5.64551 5.2561 5.30551 5.2561 4.89551C5.2561 4.48551 5.5961 4.14551 6.0061 4.14551H17.2061C19.3961 4.14551 20.0961 5.05551 20.3261 5.59551C20.5461 6.13551 20.6961 7.27551 19.1361 8.83551L17.9361 10.0355C17.6861 10.2855 17.5461 10.6355 17.5561 10.9855C17.5661 11.2855 17.6861 11.5555 17.8961 11.7455L19.1361 12.9755C20.6661 14.5055 20.5161 15.6455 20.2961 16.1955C20.0661 16.7255 19.3561 17.6455 17.2061 17.6455Z" fill="#5F33E1" fill-opacity="0.87"/>
</svg>
