<svg width="25" height="25" viewBox="0 0 25 25" fill="none" xmlns="http://www.w3.org/2000/svg">
<rect width="24" height="24" transform="translate(0.856201 0.895508)" fill="white"/>
<path d="M6.26615 22.6454C5.14615 22.6454 4.43615 22.2654 3.98615 21.8154C3.10615 20.9354 2.48615 19.0654 4.46615 15.0954L5.33615 13.3654C5.44615 13.1354 5.44615 12.6554 5.33615 12.4254L4.46615 10.6954C2.47615 6.72541 3.10615 4.84541 3.98615 3.97541C4.85615 3.09541 6.73615 2.46541 10.6961 4.45541L19.2561 8.73541C21.3862 9.79541 22.5562 11.2754 22.5562 12.8954C22.5562 14.5154 21.3862 15.9954 19.2661 17.0554L10.7062 21.3354C8.76615 22.3054 7.32615 22.6454 6.26615 22.6454ZM6.26615 4.64541C5.72615 4.64541 5.30615 4.77541 5.04615 5.03541C4.31615 5.75541 4.60615 7.62541 5.80615 10.0154L6.67615 11.7554C6.99615 12.4054 6.99615 13.3854 6.67615 14.0354L5.80615 15.7654C4.60615 18.1654 4.31615 20.0254 5.04615 20.7454C5.76615 21.4754 7.63615 21.1854 10.0361 19.9854L18.5961 15.7054C20.1661 14.9254 21.0562 13.8954 21.0562 12.8854C21.0562 11.8754 20.1561 10.8454 18.5861 10.0654L10.0261 5.79541C8.50615 5.03541 7.19615 4.64541 6.26615 4.64541Z" fill="#5F33E1"/>
<path d="M11.6961 13.6455H6.29614C5.88614 13.6455 5.54614 13.3055 5.54614 12.8955C5.54614 12.4855 5.88614 12.1455 6.29614 12.1455H11.6961C12.1061 12.1455 12.4461 12.4855 12.4461 12.8955C12.4461 13.3055 12.1061 13.6455 11.6961 13.6455Z" fill="#5F33E1"/>
</svg>
