<svg width="25" height="25" viewBox="0 0 25 25" fill="none" xmlns="http://www.w3.org/2000/svg">
<rect width="24" height="24" transform="translate(0.856201 0.895508)" fill="white"/>
<path d="M12.8562 23.6455C7.6162 23.6455 3.3562 19.3855 3.3562 14.1455C3.3562 8.90551 7.6162 4.64551 12.8562 4.64551C18.0962 4.64551 22.3562 8.90551 22.3562 14.1455C22.3562 19.3855 18.0962 23.6455 12.8562 23.6455ZM12.8562 6.14551C8.4462 6.14551 4.8562 9.73551 4.8562 14.1455C4.8562 18.5555 8.4462 22.1455 12.8562 22.1455C17.2662 22.1455 20.8562 18.5555 20.8562 14.1455C20.8562 9.73551 17.2662 6.14551 12.8562 6.14551Z" fill="#5F33E1"/>
<path d="M12.8562 14.6455C12.4462 14.6455 12.1062 14.3055 12.1062 13.8955V8.89551C12.1062 8.48551 12.4462 8.14551 12.8562 8.14551C13.2662 8.14551 13.6062 8.48551 13.6062 8.89551V13.8955C13.6062 14.3055 13.2662 14.6455 12.8562 14.6455Z" fill="#5F33E1"/>
<path d="M15.8562 3.64551H9.8562C9.4462 3.64551 9.1062 3.30551 9.1062 2.89551C9.1062 2.48551 9.4462 2.14551 9.8562 2.14551H15.8562C16.2662 2.14551 16.6062 2.48551 16.6062 2.89551C16.6062 3.30551 16.2662 3.64551 15.8562 3.64551Z" fill="#5F33E1" fill-opacity="0.87"/>
</svg>
